<?xml version="1.0" encoding="UTF-8"?>
<svg width="128px" height="128px" viewBox="0 0 128 128" xmlns="http://www.w3.org/2000/svg">
  <g>
    <path d="M107.05,41.07V25.68a4.22,4.22,0,0,0-4.21-4.21h-78a4.21,4.21,0,0,0-4.21,4.21V88.9A4.21,4.21,0,0,0,24.84,93.1H75.66a38.29,38.29,0,0,0,31.39-51.46Z" fill="#e6e7e8"/>
    <path d="M102.07,20.46a5.23,5.23,0,0,1,5.22,5.22V40.58a38.61,38.61,0,0,0-14-7.68,5.22,5.22,0,0,0-6-5.45,38.45,38.45,0,0,0-40.65,0,5.22,5.22,0,0,0-6,5.45,38.61,38.61,0,0,0-14,7.68V25.68a5.23,5.23,0,0,1,5.22-5.22h70.26m0-2H31.81a7.22,7.22,0,0,0-7.14,6.27,7.31,7.31,0,0,0-3,5.95V88.9a6.22,6.22,0,0,0,6.21,6.2H75.66a40.29,40.29,0,0,0,33-51.69,40.58,40.58,0,0,0-3.5-8.68V25.68a7.23,7.23,0,0,0-3.07-5.95Zm-5.43,13.58Z" fill="#6d6e71"/>
    <path d="M101.89,33.18a1,1,0,0,1-1-1,5.26,5.26,0,0,0-5.25-5.25,1,1,0,0,1,0-2,7.26,7.26,0,0,1,7.25,7.25A1,1,0,0,1,101.89,33.18Z" fill="#6d6e71"/>
    <path d="M102.84,106.09c-.7,0-1.4,0-2.1-.07A38.28,38.28,0,1,0,59.15,41.53a15.73,15.73,0,0,1,4.16-1.8l.12,0a5.22,5.22,0,0,1,6-5.45,38.44,38.44,0,0,1,40.65,0,5.22,5.22,0,0,1,6,5.45l.12,0A38.27,38.27,0,0,1,102.84,106.09Z" fill="#fff"/>
    <path d="M86.94,33.22a37.27,37.27,0,0,1,21.35,6.7l.13,0a39.29,39.29,0,1,1-35.36-5.8,4.22,4.22,0,0,1,4.82-4.4A37.26,37.26,0,0,1,86.94,33.22m0-2a39.31,39.31,0,0,0-8.07.84,6.18,6.18,0,0,0-4.08-2.89,6.27,6.27,0,0,0-2.88.09,39.39,39.39,0,0,0-13.57,5.61A41.28,41.28,0,1,0,109.23,41.2a6.35,6.35,0,0,0,.25-.7,6.23,6.23,0,0,0-7-7.41A39.36,39.36,0,0,0,86.94,31.22Zm-1.64,4.58Z" fill="#0071bc"/>
    <circle cx="59.5" cy="72.5" r="3.5" fill="#0071bc"/>
    <circle cx="86.5" cy="85.5" r="3.5" fill="#0071bc"/>
    <circle cx="75.5" cy="50.5" r="3.5" fill="#0071bc"/>
    <path d="M97.86,68.18a1,1,0,0,1-.84-.46,27,27,0,0,0-21.06-11.9,1,1,0,0,1,0-2,29,29,0,0,1,22.74,12.81,1,1,0,0,1-.33,1.38A1,1,0,0,1,97.86,68.18Z" fill="#0071bc"/>
    <line x1="59.5" y1="72.5" x2="86.5" y2="85.5" fill="none" stroke="#0071bc" stroke-miterlimit="10" stroke-width="2"/>
    <line x1="75.5" y1="50.5" x2="59.5" y2="72.5" fill="none" stroke="#0071bc" stroke-miterlimit="10" stroke-width="2"/>
    <g>
      <line x1="36" y1="39" x2="43" y2="46" fill="none" stroke="#0071bc" stroke-linecap="round" stroke-linejoin="round" stroke-width="2"/>
      <line x1="36" y1="46" x2="43" y2="39" fill="none" stroke="#0071bc" stroke-linecap="round" stroke-linejoin="round" stroke-width="2"/>
    </g>
    <g>
      <line x1="36" y1="56" x2="43" y2="63" fill="none" stroke="#0071bc" stroke-linecap="round" stroke-linejoin="round" stroke-width="2"/>
      <line x1="36" y1="63" x2="43" y2="56" fill="none" stroke="#0071bc" stroke-linecap="round" stroke-linejoin="round" stroke-width="2"/>
    </g>
    <g>
      <line x1="36" y1="73" x2="43" y2="80" fill="none" stroke="#0071bc" stroke-linecap="round" stroke-linejoin="round" stroke-width="2"/>
      <line x1="36" y1="80" x2="43" y2="73" fill="none" stroke="#0071bc" stroke-linecap="round" stroke-linejoin="round" stroke-width="2"/>
    </g>
  </g>
</svg>